<svg width="71" height="18" viewBox="0 0 71 18" fill="none" xmlns="http://www.w3.org/2000/svg">
<path d="M7.77832 11.6426C7.77832 11.1445 7.60254 10.7637 7.25098 10.5C6.89941 10.2305 6.2666 9.94922 5.35254 9.65625C4.43848 9.35742 3.71484 9.06445 3.18164 8.77734C1.72852 7.99219 1.00195 6.93457 1.00195 5.60449C1.00195 4.91309 1.19531 4.29785 1.58203 3.75879C1.97461 3.21387 2.53418 2.78906 3.26074 2.48438C3.99316 2.17969 4.81348 2.02734 5.72168 2.02734C6.63574 2.02734 7.4502 2.19434 8.16504 2.52832C8.87988 2.85645 9.43359 3.32227 9.82617 3.92578C10.2246 4.5293 10.4238 5.21484 10.4238 5.98242H7.78711C7.78711 5.39648 7.60254 4.94238 7.2334 4.62012C6.86426 4.29199 6.3457 4.12793 5.67773 4.12793C5.0332 4.12793 4.53223 4.26563 4.1748 4.54102C3.81738 4.81055 3.63867 5.16797 3.63867 5.61328C3.63867 6.0293 3.84668 6.37793 4.2627 6.65918C4.68457 6.94043 5.30273 7.2041 6.11719 7.4502C7.61719 7.90137 8.70996 8.46094 9.39551 9.12891C10.0811 9.79688 10.4238 10.6289 10.4238 11.625C10.4238 12.7324 10.0049 13.6025 9.16699 14.2354C8.3291 14.8623 7.20117 15.1758 5.7832 15.1758C4.79883 15.1758 3.90234 14.9971 3.09375 14.6396C2.28516 14.2764 1.66699 13.7812 1.23926 13.1543C0.817383 12.5273 0.606445 11.8008 0.606445 10.9746H3.25195C3.25195 12.3867 4.0957 13.0928 5.7832 13.0928C6.41016 13.0928 6.89941 12.9668 7.25098 12.7148C7.60254 12.457 7.77832 12.0996 7.77832 11.6426ZM22.6318 15H19.9951V9.51562H14.8535V15H12.2168V2.20312H14.8535V7.38867H19.9951V2.20312H22.6318V15ZM35.4551 8.8916C35.4551 10.1514 35.2324 11.2559 34.7871 12.2051C34.3418 13.1543 33.7031 13.8867 32.8711 14.4023C32.0449 14.918 31.0957 15.1758 30.0234 15.1758C28.9629 15.1758 28.0166 14.9209 27.1846 14.4111C26.3525 13.9014 25.708 13.1748 25.251 12.2314C24.7939 11.2822 24.5625 10.1924 24.5566 8.96191V8.3291C24.5566 7.06934 24.7822 5.96191 25.2334 5.00684C25.6904 4.0459 26.332 3.31055 27.1582 2.80078C27.9902 2.28516 28.9395 2.02734 30.0059 2.02734C31.0723 2.02734 32.0186 2.28516 32.8447 2.80078C33.6768 3.31055 34.3184 4.0459 34.7695 5.00684C35.2266 5.96191 35.4551 7.06641 35.4551 8.32031V8.8916ZM32.7832 8.31152C32.7832 6.96973 32.543 5.9502 32.0625 5.25293C31.582 4.55566 30.8965 4.20703 30.0059 4.20703C29.1211 4.20703 28.4385 4.55273 27.958 5.24414C27.4775 5.92969 27.2344 6.9375 27.2285 8.26758V8.8916C27.2285 10.1982 27.4688 11.2119 27.9492 11.9326C28.4297 12.6533 29.1211 13.0137 30.0234 13.0137C30.9082 13.0137 31.5879 12.668 32.0625 11.9766C32.5371 11.2793 32.7773 10.2656 32.7832 8.93555V8.31152ZM40.0078 10.4912V15H37.3711V2.20312H42.3633C43.3242 2.20312 44.168 2.37891 44.8945 2.73047C45.627 3.08203 46.1895 3.58301 46.582 4.2334C46.9746 4.87793 47.1709 5.61328 47.1709 6.43945C47.1709 7.69336 46.7402 8.68359 45.8789 9.41016C45.0234 10.1309 43.8369 10.4912 42.3193 10.4912H40.0078ZM40.0078 8.35547H42.3633C43.0605 8.35547 43.5908 8.19141 43.9541 7.86328C44.3232 7.53516 44.5078 7.06641 44.5078 6.45703C44.5078 5.83008 44.3232 5.32324 43.9541 4.93652C43.585 4.5498 43.0752 4.35059 42.4248 4.33887H40.0078V8.35547Z" fill="#C39204"/>
<path d="M51.7852 12.8818H58.2363V15H48.4893V13.4531L54.8174 4.33887H48.498V2.20312H58.0957V3.71484L51.7852 12.8818ZM59.9062 15V2.20312H63.8438C64.9688 2.20312 65.9736 2.45801 66.8584 2.96777C67.749 3.47168 68.4434 4.19238 68.9414 5.12988C69.4395 6.06152 69.6885 7.12207 69.6885 8.31152V8.90039C69.6885 10.0898 69.4424 11.1475 68.9502 12.0732C68.4639 12.999 67.7754 13.7168 66.8848 14.2266C65.9941 14.7363 64.9893 14.9941 63.8701 15H59.9062ZM62.543 4.33887V12.8818H63.8174C64.8486 12.8818 65.6367 12.5449 66.1816 11.8711C66.7266 11.1973 67.0049 10.2334 67.0166 8.97949V8.30273C67.0166 7.00195 66.7471 6.01758 66.208 5.34961C65.6689 4.67578 64.8809 4.33887 63.8438 4.33887H62.543Z" fill="white"/>
</svg>
